<svg xmlns="http://www.w3.org/2000/svg" viewBox="0 0 250.56 430.93"><defs><style>.cls-1{fill:none;stroke:#000;stroke-linecap:round;stroke-linejoin:round;stroke-width:4.11px;}</style></defs><g id="Layer_2" data-name="Layer 2"><g id="Layer_1-2" data-name="Layer 1"><path class="cls-1" d="M244.25,4.41C99.27,90.23,2.05,248.2,2.05,428.88"/><path d="M210.05,2a2.06,2.06,0,0,0,2,2.11l31.42.83-14,28.12a2.05,2.05,0,0,0,3.68,1.83l15.48-31a2.05,2.05,0,0,0-1.79-3L212.16,0a2.12,2.12,0,0,0-1.11.29A2.09,2.09,0,0,0,210.05,2Z"/><path class="cls-1" d="M76.33,423.94c1.58-137.07,69-258.31,172.18-333.54"/><path d="M96.52,396.17a2.05,2.05,0,0,0-2.85.58L76.39,423,59.91,396.24a2.05,2.05,0,0,0-3.5,2.15L74.58,427.9a2.05,2.05,0,0,0,3.47.05L97.1,399a1.94,1.94,0,0,0,.34-1.09A2,2,0,0,0,96.52,396.17Z"/></g></g></svg>