<svg xmlns="http://www.w3.org/2000/svg" viewBox="0 0 570.53 188.76"><defs><style>.cls-1{fill:none;stroke:#000;stroke-linecap:round;stroke-linejoin:round;stroke-width:4.11px;}</style></defs><g id="Layer_2" data-name="Layer 2"><g id="Layer_1-2" data-name="Layer 1"><path class="cls-1" d="M564.83,5.52A417.14,417.14,0,0,1,285.35,112.46,417.19,417.19,0,0,1,2.05,2.05"/><path d="M530.66,9.16A2.06,2.06,0,0,0,533,10.88l31.06-4.8-8.78,30.17a2.05,2.05,0,1,0,3.94,1.15l9.69-33.27a2.06,2.06,0,0,0-.43-1.93,2,2,0,0,0-1.86-.67L532.38,6.82a2,2,0,0,0-1,.48A2.06,2.06,0,0,0,530.66,9.16Z"/><path class="cls-1" d="M6.11,100a490.59,490.59,0,0,0,279.24,86.68A490.63,490.63,0,0,0,568.48,97.32"/><path d="M18.36,132a2.05,2.05,0,0,0,1.07-2.7L6.92,100.5l31.42.86a2.06,2.06,0,1,0,.11-4.11l-34.64-1a2.06,2.06,0,0,0-1.94,2.87L15.66,131a2,2,0,0,0,2.7,1.06Z"/></g></g></svg>