<svg xmlns="http://www.w3.org/2000/svg" viewBox="0 0 268.65 431.07"><defs><style>.cls-1{fill:none;stroke:#000;stroke-linecap:round;stroke-linejoin:round;stroke-width:4.11px;}</style></defs><g id="Layer_2" data-name="Layer 2"><g id="Layer_1-2" data-name="Layer 1"><path class="cls-1" d="M248.49,424.08C246.72,243.7,148.05,86.51,2.05,2.05"/><path d="M267.67,395.67a2.06,2.06,0,0,0-2.83.68l-16.43,26.79-17.33-26.22a2,2,0,0,0-2.84-.58,2.07,2.07,0,0,0-.59,2.85l19.11,28.91a2.08,2.08,0,0,0,1.75.92,2.06,2.06,0,0,0,1.72-1l18.11-29.54a2,2,0,0,0-.67-2.83Z"/><path class="cls-1" d="M6,93.47C108.16,169.82,174.27,291.7,174.27,429"/><path d="M16.6,126.14a2,2,0,0,0,1.2-2.64l-11-29.43,31.34,2.44a2.06,2.06,0,0,0,.31-4.1L3.86,89.73A2.05,2.05,0,0,0,1.77,92.5L14,124.94a2.06,2.06,0,0,0,.69.92A2,2,0,0,0,16.6,126.14Z"/></g></g></svg>